<svg xmlns="http://www.w3.org/2000/svg" viewBox="0 0 283.46457 283.46457"><path d="M246.24731,145.558,145.558,246.24734a6.78477,6.78477,0,0,0,5.31544,11.55772A116.3466,116.3466,0,0,0,257.805,150.87346,6.78477,6.78477,0,0,0,246.24731,145.558Z" fill="#1a237e"/><path d="M247.08163,92.07406q-.08893-.18912-.17858-.378a19.98371,19.98371,0,0,0-32.20257-5.77813L85.9179,214.70052A19.9837,19.9837,0,0,0,91.696,246.90308q.18888.08966.378.17859a19.81856,19.81856,0,0,0,22.38614-4.0445l128.577-128.577A19.81853,19.81853,0,0,0,247.08163,92.07406Z" fill="#1a237e"/><path d="M137.90654,37.21726a6.78476,6.78476,0,0,0-5.31543-11.55772A116.34662,116.34662,0,0,0,25.6595,132.59114a6.78477,6.78477,0,0,0,11.55773,5.31543Z" fill="#1a237e"/><path d="M55.20759,154.22391,40.42723,169.00426a19.94775,19.94775,0,0,0-3.93261,22.62284l.15944.33766a19.92717,19.92717,0,0,0,32.10983,5.58177L83.647,182.66337a20.10973,20.10973,0,0,0,0-28.43944l0,0A20.1097,20.1097,0,0,0,55.20759,154.22391Z" fill="#1a237e"/><path d="M130.26569,136.04473l67.28086-67.28086A19.92717,19.92717,0,0,0,191.96478,36.654l-.33765-.15944a19.94775,19.94775,0,0,0-22.62285,3.93261l-67.178,67.17805a20.10973,20.10973,0,0,0,0,28.43944l0,0A20.10972,20.10972,0,0,0,130.26569,136.04473Z" fill="#ff9800"/></svg>